<?xml version="1.0" encoding="UTF-8"?>
<svg version="1.1" xmlns="http://www.w3.org/2000/svg" width="720" height="720">
<path d="M0 0 C0.66 0 1.32 0 2 0 C2.25168945 0.76554199 2.50337891 1.53108398 2.76269531 2.31982422 C3.92186492 5.83930114 5.08589864 9.35715138 6.25 12.875 C6.64574219 14.07898438 7.04148437 15.28296875 7.44921875 16.5234375 C9.46098573 22.59171823 11.58306734 28.55621851 14.00830078 34.47021484 C15.99145178 39.52915395 17.62347782 44.71214701 19.3125 49.875 C22.41461369 59.29187691 25.58613097 68.67512962 28.96801758 77.99560547 C31 83.67932804 31 83.67932804 31 87 C31.74378906 87.07476562 32.48757813 87.14953125 33.25390625 87.2265625 C69.20056155 91.55543953 111.41543765 107.30403629 137.9453125 132.875 C140.01560197 134.31464501 140.01560197 134.31464501 142.60083008 133.31542969 C146.64594491 131.75002864 150.53283394 129.95447191 154.44140625 128.078125 C155.24553452 127.69565613 156.04966278 127.31318726 156.87815857 126.91912842 C159.44117211 125.69934131 162.00191243 124.47487034 164.5625 123.25 C166.25569904 122.44237209 167.94905705 121.63507741 169.64257812 120.828125 C170.47018646 120.43371216 171.2977948 120.03929932 172.15048218 119.63293457 C174.59044574 118.47143344 177.03171199 117.31270645 179.47314453 116.15429688 C182.32543188 114.80081169 185.16971155 113.43278565 188.00732422 112.04882812 C189.74973389 111.21254883 189.74973389 111.21254883 191.52734375 110.359375 C192.5237085 109.87436523 193.52007324 109.38935547 194.54663086 108.88964844 C197 108 197 108 200 109 C199.5153125 109.95777344 199.030625 110.91554688 198.53125 111.90234375 C194.54744461 119.8057158 190.64517357 127.73712811 186.94702148 135.77880859 C185.39637646 139.13041321 183.80568189 142.41172406 181.9765625 145.62109375 C178.64594403 151.60940982 176.62639234 156.44191515 176.31271362 163.3401947 C176.27978395 164.03086657 176.24685428 164.72153843 176.21292675 165.43313974 C175.86835461 173.4508838 175.89041889 181.4712281 175.93408203 189.49438477 C175.93929142 191.17994546 175.94399622 192.86550777 175.94824219 194.55107117 C175.95808571 198.14453706 175.9708955 201.7379751 175.98596573 205.33142281 C176.00925476 211.01805204 176.02239655 216.704678 176.03366089 222.39134216 C176.06691721 238.54910837 176.10890155 254.70682063 176.17138672 270.86450195 C176.20591831 279.81580671 176.22971723 288.76707336 176.24159515 297.71843761 C176.24967619 303.36825224 176.27087447 309.01781495 176.30180001 314.6675483 C176.31782276 318.17834252 176.32121958 321.68906477 176.32102966 325.19989204 C176.32344747 326.82405214 176.33100717 328.44821419 176.34415817 330.07232285 C176.36139457 332.29381534 176.35995493 334.51456472 176.35403442 336.73609924 C176.35809862 337.97725274 176.36216282 339.21840624 176.36635017 340.49717045 C175.62293593 347.60526969 172.2324827 353.21283498 167 358 C161.2945937 361.46799207 155.5119944 361.96033625 149 361 C142.53109169 358.75385128 138.19308457 355.02392845 135 349 C132.7677233 343.89765326 131.95766458 339.12163339 133.7578125 333.73046875 C136.49630673 327.22924031 139.51375836 322.24312082 146 319 C149.29099038 317.94831394 152.30756864 317.89651867 155.75 317.9375 C156.73484375 317.94652344 157.7196875 317.95554687 158.734375 317.96484375 C159.85585938 317.98224609 159.85585938 317.98224609 161 318 C161.02688151 319.64574566 161.04634123 321.29161413 161.0625 322.9375 C161.07990234 324.31228516 161.07990234 324.31228516 161.09765625 325.71484375 C161 328 161 328 160 329 C158.58479382 329.10526327 157.16759312 329.18428376 155.75 329.25 C151.97585671 329.61659672 151.09685771 329.92130311 148 332.4375 C145.07060131 336.19079208 144.53178177 338.22417403 145 343 C146.79993774 345.69990662 148.083773 347.5418865 151 349 C156.85415468 349.38544538 156.85415468 349.38544538 162 347 C164.33760018 343.44708156 164.30731493 340.19701711 164.4074707 336.01391602 C164.42642332 335.30506948 164.44537594 334.59622295 164.46490288 333.86589622 C164.5250267 331.47451652 164.5698607 329.08314436 164.61328125 326.69140625 C164.65016689 324.96464354 164.68714149 323.23788272 164.72419739 321.51112366 C165.13809756 300.90135318 165.27723126 280.2865376 165.20895195 259.67302513 C165.18962661 253.65788843 165.19043095 247.64417304 165.23657227 241.62915039 C165.28174455 235.68320616 165.27788764 229.73912906 165.23989296 223.79315376 C165.2336959 221.56346348 165.24426983 219.33365232 165.27306175 217.10413933 C165.4443918 202.6633623 164.0469191 193.68073902 154 183 C153.41890472 182.30780365 152.83780945 181.6156073 152.23910522 180.9024353 C150.94525132 179.36459299 149.57077399 177.89543346 148.1875 176.4375 C147.31480469 175.50808594 146.44210937 174.57867187 145.54296875 173.62109375 C143.84523733 171.87120468 142.13416375 170.13416375 140.41015625 168.41015625 C138.96335182 166.96335182 137.53378734 165.49852756 136.140625 164 C100.70554814 126.51496002 49.49584078 113.1246534 0 109 C0 73.03 0 37.06 0 0 Z " fill="#E2A640" transform="translate(360,53)"/>
<path d="M0 0 C8.25 0 16.5 0 25 0 C26.0209375 4.33125 26.0209375 4.33125 27.0625 8.75 C30.99355525 24.71694388 36.30348866 39.80464216 44.09179688 54.30126953 C44.90020844 55.81334686 45.67884162 57.34125966 46.453125 58.87109375 C62.57978918 90.05857936 89.59523653 116.80852159 120 134 C120.92619141 134.53270508 120.92619141 134.53270508 121.87109375 135.07617188 C152.4831793 152.56446233 185.13352595 158.94903094 220 161 C220 197.63 220 234.26 220 272 C219.34 272 218.68 272 218 272 C217.78861389 271.40929214 217.57722778 270.81858429 217.35943604 270.2099762 C215.09481176 263.88212918 212.82905864 257.55468709 210.56265259 251.22747803 C209.69002619 248.79107056 208.81760881 246.35458822 207.94540405 243.91802979 C201.55334908 226.06099089 201.55334908 226.06099089 195.06640625 208.23828125 C194.78072784 207.45886673 194.49504944 206.67945221 194.20071411 205.87641907 C192.90819938 202.3520994 191.61038355 198.8298857 190.30371094 195.31079102 C189.85930664 194.10221436 189.41490234 192.8936377 188.95703125 191.6484375 C188.38432495 190.10422119 188.38432495 190.10422119 187.80004883 188.52880859 C187 186 187 186 187 183 C186.25621094 182.92523437 185.51242187 182.85046875 184.74609375 182.7734375 C147.63692091 178.30456426 108.96285049 161.97108516 80.89453125 137.046875 C78.24406049 135.58228497 76.88976138 136.24699837 74 137 C72.45831434 137.6364908 70.93932078 138.33002918 69.44433594 139.06958008 C68.57282898 139.49705032 67.70132202 139.92452057 66.80340576 140.36494446 C65.87312561 140.8284581 64.94284546 141.29197174 63.984375 141.76953125 C63.01397278 142.2469426 62.04357056 142.72435394 61.04376221 143.2162323 C57.94309726 144.74282964 54.84640908 146.27729143 51.75 147.8125 C48.66719145 149.33556858 45.58356455 150.85695214 42.49908447 152.37663269 C40.58238643 153.32153839 38.66675311 154.26860804 36.75238037 155.21821594 C31.22478907 157.94993154 25.65643383 160.54582155 20 163 C20.64783184 158.11902576 22.670974 154.1079097 24.7890625 149.7265625 C25.17057465 148.92576263 25.55208679 148.12496277 25.94515991 147.29989624 C27.16652144 144.73904909 28.39551755 142.18195663 29.625 139.625 C30.42891498 137.94426361 31.23230537 136.2632762 32.03515625 134.58203125 C32.42934753 133.75733337 32.82353882 132.9326355 33.22967529 132.08294678 C34.01680378 130.43385074 34.80233707 128.78399231 35.58624268 127.13336182 C37.42370574 123.26892156 39.28310003 119.42130513 41.21777344 115.60449219 C41.72454117 114.58239151 41.72454117 114.58239151 42.24154663 113.53964233 C43.14744953 111.71389079 44.06994215 109.896397 44.99365234 108.07958984 C46.28562974 105.06651617 46.28562974 105.06651617 45.27172852 102.21606445 C43.89766586 99.82167652 42.38199976 97.88922634 40.5625 95.8125 C21.11381203 72.05756896 0 31.34301714 0 0 Z " fill="#E8AB42" transform="translate(141,397)"/>
<path d="M0 0 C36.63 0 73.26 0 111 0 C111 0.66 111 1.32 111 2 C89.47916235 9.54393655 67.94725521 17.05540956 46.3692627 24.43453979 C44.41423439 25.10335777 42.4595628 25.77321935 40.50524902 26.44412231 C37.77408661 27.38123735 35.0415729 28.31429245 32.30859375 29.24609375 C31.49287399 29.52661591 30.67715424 29.80713806 29.8367157 30.09616089 C24.22922021 32 24.22922021 32 22 32 C21.95609131 32.65919434 21.91218262 33.31838867 21.86694336 33.99755859 C18.87508049 72.69776425 -0.36928585 111.47576649 -25 141 C-20.96377097 150.20968497 -16.86674758 159.38190983 -12.53515625 168.45703125 C-11.9830397 169.6147554 -11.9830397 169.6147554 -11.41976929 170.79586792 C-9.91686016 173.94272632 -8.41097801 177.08811917 -6.89916992 180.23071289 C-5.77287439 182.57465086 -4.65354988 184.92181498 -3.53515625 187.26953125 C-3.19355972 187.9747139 -2.8519632 188.67989655 -2.50001526 189.40644836 C-0.83426448 192.91466369 0.46604909 196.14088498 1 200 C-5.08963976 198.23639053 -10.63220748 195.39038826 -16.3125 192.625 C-17.94094849 191.84056519 -17.94094849 191.84056519 -19.60229492 191.0402832 C-25.43850285 188.22680911 -31.25758331 185.3813712 -37.0625 182.50390625 C-38.19389404 181.94815918 -39.32528809 181.39241211 -40.4909668 180.81982422 C-42.67444169 179.74678393 -44.85317859 178.66403827 -47.02661133 177.57080078 C-48.0142749 177.08724121 -49.00193848 176.60368164 -50.01953125 176.10546875 C-50.88682861 175.67387451 -51.75412598 175.24228027 -52.64770508 174.79760742 C-55.31782601 173.89223274 -56.41585338 173.95336084 -59 175 C-60.87619598 176.38108871 -62.70292914 177.82991654 -64.5 179.3125 C-88.89607574 198.65807349 -126.22573007 219 -158 219 C-158 211.41 -158 203.82 -158 196 C-150.14830648 192.63498849 -150.14830648 192.63498849 -146.46875 191.60546875 C-145.66638916 191.37577393 -144.86402832 191.1460791 -144.03735352 190.90942383 C-143.20002686 190.67118896 -142.3627002 190.4329541 -141.5 190.1875 C-93.69612498 176.09064809 -50.95037992 143.75635889 -26.625 99.875 C-25.0439214 96.93607263 -23.51379841 93.97403473 -22 91 C-21.64212402 90.31260742 -21.28424805 89.62521484 -20.91552734 88.91699219 C-6.42263496 60.89250475 -2.32488801 31.38598815 0 0 Z " fill="#E9AC42" transform="translate(558,359)"/>
<path d="M0 0 C0 7.92 0 15.84 0 24 C-3.58875 25.010625 -7.1775 26.02125 -10.875 27.0625 C-54.51281544 39.71908761 -93.05802765 63.98026266 -120 101 C-120.41314453 101.56348145 -120.82628906 102.12696289 -121.25195312 102.70751953 C-143.66681335 133.67448372 -153.97918134 168.44276326 -158 206 C-158.33 208.97 -158.66 211.94 -159 215 C-192.66 215 -226.32 215 -261 215 C-258.58665207 213.39110138 -256.87372411 212.47881258 -254.21875 211.51953125 C-253.46940186 211.24633057 -252.72005371 210.97312988 -251.94799805 210.69165039 C-251.14015869 210.40153076 -250.33231934 210.11141113 -249.5 209.8125 C-247.76688371 209.18241096 -246.03381198 208.55219932 -244.30078125 207.921875 C-243.41600098 207.60154297 -242.5312207 207.28121094 -241.61962891 206.95117188 C-238.40560827 205.78417985 -235.19800559 204.60032258 -231.9909668 203.41430664 C-221.50982954 199.53845207 -211.01001044 195.7140694 -200.50292969 191.90917969 C-198.20032804 191.0727684 -195.90053649 190.22913226 -193.6015625 189.3828125 C-192.33858611 188.92175324 -191.07556883 188.46080597 -189.8125 188 C-188.21341797 187.4121875 -188.21341797 187.4121875 -186.58203125 186.8125 C-184 186 -184 186 -181 186 C-180.91024902 185.43829102 -180.82049805 184.87658203 -180.72802734 184.29785156 C-174.26667364 144.62851933 -158.45343565 108.27384584 -133 77 C-137.45271372 67.4826499 -141.98609442 58.00778668 -146.60546875 48.5703125 C-147.21319122 47.32730629 -147.21319122 47.32730629 -147.83319092 46.05918884 C-149.49231809 42.66600498 -151.15154237 39.27290222 -152.81878662 35.88369751 C-154.00886699 33.46446715 -155.19425161 31.04298449 -156.37890625 28.62109375 C-156.74412888 27.88226959 -157.1093515 27.14344543 -157.48564148 26.38223267 C-160 21.22705889 -160 21.22705889 -160 19 C-152.64107545 21.19740175 -145.94515094 24.29911583 -139.06689453 27.69827271 C-135.86908736 29.27510776 -132.65797975 30.82451968 -129.44921875 32.37890625 C-125.89036524 34.10575244 -122.33344149 35.83603811 -118.78369141 37.58154297 C-116.03189784 38.92944384 -113.26870236 40.24977812 -110.5 41.5625 C-109.30153442 42.16215576 -109.30153442 42.16215576 -108.07885742 42.77392578 C-106.04085774 43.72447287 -104.19712672 44.52436419 -102 45 C-99.24179908 44.12411919 -99.24179908 44.12411919 -97 42 C-96.00226563 41.28585938 -95.00453125 40.57171875 -93.9765625 39.8359375 C-93.17061646 39.24353271 -93.17061646 39.24353271 -92.34838867 38.63916016 C-67.18083753 20.17796455 -32.05403539 0 0 0 Z " fill="#E9AC42" transform="translate(321,142)"/>
<path d="M0 0 C1.04256958 0.00031723 1.04256958 0.00031723 2.10620117 0.00064087 C14.57347178 0.03825948 26.46538285 1.26836707 38.5625 4.375 C39.29307617 4.56223633 40.02365234 4.74947266 40.77636719 4.94238281 C73.40256351 13.63569513 103.3054638 33.28426484 123.5625 60.375 C124.16320312 61.17164063 124.76390625 61.96828125 125.3828125 62.7890625 C140.33980434 83.38007817 153.5625 110.44801667 153.5625 136.375 C146.9625 136.375 140.3625 136.375 133.5625 136.375 C133.046875 133.631875 132.53125 130.88875 132 128.0625 C124.59128876 91.67721461 103.43545074 61.82460725 72.5625 41.375 C71.84320313 40.88515625 71.12390625 40.3953125 70.3828125 39.890625 C43.64464083 22.68197472 7.63418624 16.95169371 -23.5 22.4375 C-26.18786073 23.0209954 -28.79371169 23.64092228 -31.4375 24.375 C-32.23881348 24.59542969 -33.04012695 24.81585938 -33.86572266 25.04296875 C-70.13203045 35.3754838 -98.54957194 57.90871151 -117.09350586 90.63330078 C-124.96602091 105.0421472 -128.92542371 120.43557686 -132.4375 136.375 C-139.0375 136.375 -145.6375 136.375 -152.4375 136.375 C-151.91346942 128.97902298 -150.9216939 122.13915593 -148.9375 115 C-148.67614258 114.05882324 -148.41478516 113.11764648 -148.14550781 112.14794922 C-136.89950768 73.33048387 -110.84848032 39.65580325 -75.625 19.5625 C-52.3247431 6.77418228 -26.55401649 -0.07517539 0 0 Z " fill="#EAAC43" transform="translate(359.4375,205.625)"/>
<path d="M0 0 C18.27799685 -2.5372553 18.27799685 -2.5372553 24.09082031 1.42529297 C27.699402 5.15696271 30.27933841 9.54045058 32.83300781 14.03417969 C46.34596673 36.79701342 77.48463926 52.2322581 102.2043457 58.73242188 C138.12885625 67.55233645 175.33328777 62.11442015 207 43 C224.05451656 32.30851874 238.58177084 18.25519204 249 1 C251.45275141 -0.2263757 253.0505781 -0.11415314 255.7890625 -0.09765625 C256.73007812 -0.09443359 257.67109375 -0.09121094 258.640625 -0.08789062 C260.11789062 -0.07532227 260.11789062 -0.07532227 261.625 -0.0625 C262.61757813 -0.05798828 263.61015625 -0.05347656 264.6328125 -0.04882812 C267.0886016 -0.03702145 269.54427104 -0.020554 272 0 C272.33 0.66 272.66 1.32 273 2 C272.23071289 3.62890625 272.23071289 3.62890625 270.97265625 5.5625 C270.5142334 6.27204834 270.05581055 6.98159668 269.58349609 7.71264648 C269.08156738 8.46747314 268.57963867 9.2222998 268.0625 10 C267.55541504 10.77093994 267.04833008 11.54187988 266.52587891 12.33618164 C262.6533795 18.15961321 258.57676966 23.7063869 254 29 C252.97519531 30.2065625 252.97519531 30.2065625 251.9296875 31.4375 C242.07637104 42.73879486 231.27926731 51.70218153 218.76708984 59.84863281 C217.31000896 60.79801019 215.8660242 61.76745555 214.42578125 62.7421875 C197.12365394 73.91459083 174.42901904 81.14495114 154 83 C153.29649414 83.06558105 152.59298828 83.13116211 151.86816406 83.19873047 C112.14910735 86.67102536 72.32478706 76.05056196 41 51 C40.41669922 50.53480957 39.83339844 50.06961914 39.23242188 49.59033203 C23.30922675 36.73754805 9.49702423 21.25314585 0 3 C0 2.01 0 1.02 0 0 Z " fill="#E9AC43" transform="translate(224,431)"/>
<path d="M0 0 C0.81210937 -0.02900391 1.62421875 -0.05800781 2.4609375 -0.08789062 C6.3248267 -0.12879499 8.65083019 -0.0326285 12.05078125 1.92578125 C14.60777525 4.70077829 16.68296404 7.63182242 18.6875 10.8125 C19.54994106 12.1407164 20.41465951 13.4674559 21.28125 14.79296875 C21.74917969 15.5101709 22.21710937 16.22737305 22.69921875 16.96630859 C25.62877743 21.39846522 28.65511442 25.7628275 31.6875 30.125 C32.29070068 31.00285156 32.89390137 31.88070313 33.51538086 32.78515625 C34.08651611 33.605 34.65765137 34.42484375 35.24609375 35.26953125 C35.75325928 36.00147705 36.2604248 36.73342285 36.78295898 37.48754883 C38.30179327 39.56438367 38.30179327 39.56438367 41.25 41.3125 C41.25 28.1125 41.25 14.9125 41.25 1.3125 C44.66826747 -0.39663373 48.48354763 0.12791521 52.25 0.125 C53.08273437 0.11275391 53.91546875 0.10050781 54.7734375 0.08789062 C55.96839844 0.08499023 55.96839844 0.08499023 57.1875 0.08203125 C58.28384766 0.07586792 58.28384766 0.07586792 59.40234375 0.06958008 C61.25 0.3125 61.25 0.3125 63.25 2.3125 C63.44288861 4.71101867 63.51243089 6.99351531 63.49291992 9.39257812 C63.49481827 10.12117538 63.49671661 10.84977264 63.49867249 11.60044861 C63.5023849 14.01499098 63.49166952 16.42923424 63.48046875 18.84375 C63.47927708 20.51761845 63.47882376 22.19148759 63.4790802 23.86535645 C63.47751452 27.37593768 63.46921856 30.88641705 63.45581055 34.39697266 C63.43882059 38.90317784 63.43499617 43.40927099 63.43575573 47.91550446 C63.43548415 51.37267125 63.43000493 54.82981343 63.42275429 58.28697205 C63.41956588 59.94880487 63.41759981 61.61064048 63.41686058 63.2724762 C63.41469883 65.59250671 63.40595819 67.91241706 63.39526367 70.23242188 C63.39571686 70.92339462 63.39617004 71.61436737 63.39663696 72.32627869 C63.36447814 77.08354371 63.36447814 77.08354371 62.25 79.3125 C44.90601895 81.26322894 44.90601895 81.26322894 39.234375 77.09765625 C36.93390498 73.94899135 35.08686938 70.75084164 33.25 67.3125 C31.79575595 65.17036712 30.31617085 63.04523172 28.8125 60.9375 C28.08289063 59.87144531 27.35328125 58.80539062 26.6015625 57.70703125 C24.92118579 55.26278149 23.20276096 52.85006202 21.4609375 50.44921875 C20.99872803 49.81097168 20.53651855 49.17272461 20.06030273 48.51513672 C19.16006261 47.27564551 18.25605067 46.03888312 17.34790039 44.80517578 C14.25 40.53284748 14.25 40.53284748 14.25 38.3125 C13.59 38.3125 12.93 38.3125 12.25 38.3125 C12.26047363 39.44792236 12.27094727 40.58334473 12.28173828 41.75317383 C12.31792055 45.96310273 12.34089402 50.17301787 12.35986328 54.38305664 C12.36992491 56.20567129 12.3835756 58.02826979 12.40087891 59.85083008 C12.42512021 62.46960435 12.43648138 65.08816531 12.4453125 67.70703125 C12.45563507 68.52275101 12.46595764 69.33847076 12.47659302 70.1789093 C12.4773686 74.08380756 12.46650661 75.98774008 10.25 79.3125 C8.29467773 79.66894531 8.29467773 79.66894531 5.93359375 79.640625 C5.08732422 79.63546875 4.24105469 79.6303125 3.36914062 79.625 C2.48419922 79.604375 1.59925781 79.58375 0.6875 79.5625 C-0.64571289 79.55476563 -0.64571289 79.55476563 -2.00585938 79.546875 C-8.59605454 79.46644546 -8.59605454 79.46644546 -9.75 78.3125 C-9.85027795 75.91440851 -9.88618676 73.54510502 -9.87939453 71.14648438 C-9.88114685 70.39691971 -9.88289917 69.64735504 -9.88470459 68.87507629 C-9.8891232 66.38544431 -9.8861851 63.89588277 -9.8828125 61.40625 C-9.88348554 59.68371568 -9.88445556 57.96118145 -9.88571167 56.23864746 C-9.88718865 52.62377012 -9.88503407 49.00891745 -9.88037109 45.39404297 C-9.8746738 40.74983507 -9.8779528 36.10568496 -9.88394356 31.46147919 C-9.88754916 27.90313274 -9.88641059 24.3448001 -9.88381577 20.78645325 C-9.88314649 19.07355238 -9.88397493 17.36065028 -9.88629532 15.64775085 C-9.88882183 13.25797178 -9.8849813 10.86828759 -9.87939453 8.47851562 C-9.88141876 7.76367508 -9.88344299 7.04883453 -9.88552856 6.31233215 C-9.85258578 -1.25586032 -6.69352753 0.07819542 0 0 Z " fill="#C9C9C9" transform="translate(580.75,242.6875)"/>
<path d="M0 0 C2.99540631 1.73162434 5.61972406 3.37286495 7.625 6.25 C7.28444681 10.36388254 5.92447506 12.5410161 3.1875 15.5625 C2.26130859 16.60857422 2.26130859 16.60857422 1.31640625 17.67578125 C-0.375 19.25 -0.375 19.25 -2.375 19.25 C-2.705 20.24 -3.035 21.23 -3.375 22.25 C-4.035 22.25 -4.695 22.25 -5.375 22.25 C-5.643125 22.848125 -5.91125 23.44625 -6.1875 24.0625 C-7.35993467 26.22224808 -8.56869282 27.60790256 -10.375 29.25 C-6.24940852 28.83727468 -6.24940852 28.83727468 -2.625 27 C-1.11102424 24.88043394 -0.32832758 22.66509654 0.625 20.25 C3.83951269 18.64274365 7.06112536 19.19251815 10.625 19.25 C12.00743097 23.27161737 11.44552105 26.28059856 9.83984375 30.1875 C6.66043055 35.5853462 1.52742753 39.33933577 -4.375 41.25 C-11.15805902 42.2263494 -16.62276429 41.49102178 -22.43359375 37.80078125 C-27.56534752 33.70157351 -30.25809758 28.72803401 -31.375 22.25 C-31.46663496 15.91573368 -29.92486067 10.50905285 -26.375 5.25 C-19.25787617 -1.86712383 -9.26488899 -4.36502219 0 0 Z M-18.375 13.25 C-20.38296384 16.30975443 -20.375 17.39485886 -20.375 21.25 C-16.71935261 19.71563424 -14.38801377 17.50017578 -11.625 14.6875 C-10.82578125 13.88183594 -10.0265625 13.07617188 -9.203125 12.24609375 C-7.2624337 10.57821409 -7.2624337 10.57821409 -7.375 9.25 C-12.50054485 8.77320513 -14.73308466 9.60808466 -18.375 13.25 Z " fill="#D59D3D" transform="translate(250.375,372.75)"/>
<path d="M0 0 C3.74462646 1.77082335 7.25254043 3.79508518 9.65234375 7.23828125 C9.3516263 11.58436439 7.8593024 13.46332843 4.71484375 16.36328125 C2.29083443 18.62451681 0.50606451 20.45770011 -1.34765625 23.23828125 C-2.00765625 23.23828125 -2.66765625 23.23828125 -3.34765625 23.23828125 C-3.61578125 23.83640625 -3.88390625 24.43453125 -4.16015625 25.05078125 C-5.33259092 27.21052933 -6.54134907 28.59618381 -8.34765625 30.23828125 C-4.22206477 29.82555593 -4.22206477 29.82555593 -0.59765625 27.98828125 C0.91631951 25.86871519 1.69901617 23.65337779 2.65234375 21.23828125 C5.86685644 19.6310249 9.08846911 20.1807994 12.65234375 20.23828125 C14.03477472 24.25989862 13.4728648 27.26887981 11.8671875 31.17578125 C8.6877743 36.57362745 3.55477128 40.32761702 -2.34765625 42.23828125 C-9.13071527 43.21463065 -14.59542054 42.47930303 -20.40625 38.7890625 C-25.53800377 34.68985476 -28.23075383 29.71631526 -29.34765625 23.23828125 C-29.43920417 16.91003101 -27.90369228 11.48880425 -24.34765625 6.23828125 C-21.97265625 3.92578125 -21.97265625 3.92578125 -19.34765625 2.23828125 C-18.48140625 1.66078125 -17.61515625 1.08328125 -16.72265625 0.48828125 C-11.24872643 -1.53910016 -5.60029832 -1.81706851 0 0 Z M-16.34765625 14.23828125 C-18.35562009 17.29803568 -18.34765625 18.38314011 -18.34765625 22.23828125 C-14.69200886 20.70391549 -12.36067002 18.48845703 -9.59765625 15.67578125 C-8.7984375 14.87011719 -7.99921875 14.06445312 -7.17578125 13.234375 C-5.23508995 11.56649534 -5.23508995 11.56649534 -5.34765625 10.23828125 C-10.4732011 9.76148638 -12.70574091 10.59636591 -16.34765625 14.23828125 Z " fill="#D19A3C" transform="translate(365.34765625,371.76171875)"/>
<path d="M0 0 C1.16337891 0.00322266 2.32675781 0.00644531 3.52539062 0.00976562 C4.74033203 0.01814453 5.95527344 0.02652344 7.20703125 0.03515625 C8.43357422 0.03966797 9.66011719 0.04417969 10.92382812 0.04882812 C13.95577793 0.0606256 16.98763031 0.07708704 20.01953125 0.09765625 C20.04641276 1.74340191 20.06587248 3.38927038 20.08203125 5.03515625 C20.09363281 5.95167969 20.10523438 6.86820312 20.1171875 7.8125 C20.01953125 10.09765625 20.01953125 10.09765625 19.01953125 11.09765625 C17.38696367 11.25480279 15.74817787 11.34851039 14.109375 11.4140625 C12.6253418 11.4769043 12.6253418 11.4769043 11.11132812 11.54101562 C9.54995117 11.59999023 9.54995117 11.59999023 7.95703125 11.66015625 C6.38985352 11.72493164 6.38985352 11.72493164 4.79101562 11.79101562 C2.20066241 11.8974685 -0.38979061 11.99948385 -2.98046875 12.09765625 C-2.98046875 13.08765625 -2.98046875 14.07765625 -2.98046875 15.09765625 C-1.97886719 15.1234375 -0.97726562 15.14921875 0.0546875 15.17578125 C13.62886854 15.68711404 13.62886854 15.68711404 19.01953125 20.09765625 C22.23287173 23.72562131 22.54265278 27.19613166 22.37109375 31.8828125 C21.66027665 36.36096021 19.34693402 39.12451627 15.7746582 41.7434082 C12.48335906 43.36120496 10.27933867 43.44258242 6.625 43.390625 C5.42294922 43.38095703 4.22089844 43.37128906 2.98242188 43.36132812 C1.73654297 43.33619141 0.49066406 43.31105469 -0.79296875 43.28515625 C-2.69079102 43.26485352 -2.69079102 43.26485352 -4.62695312 43.24414062 C-7.74522518 43.20883943 -10.86262917 43.15952444 -13.98046875 43.09765625 C-14.00735026 41.45191059 -14.02680998 39.80604212 -14.04296875 38.16015625 C-14.05457031 37.24363281 -14.06617188 36.32710938 -14.078125 35.3828125 C-13.98046875 33.09765625 -13.98046875 33.09765625 -12.98046875 32.09765625 C-11.27483097 31.9402502 -9.56319631 31.84672233 -7.8515625 31.78125 C-6.81708984 31.73935547 -5.78261719 31.69746094 -4.71679688 31.65429688 C-3.62818359 31.61498047 -2.53957031 31.57566406 -1.41796875 31.53515625 C0.22075195 31.47038086 0.22075195 31.47038086 1.89257812 31.40429688 C4.60142689 31.29783557 7.31037117 31.19582109 10.01953125 31.09765625 C10.01953125 30.10765625 10.01953125 29.11765625 10.01953125 28.09765625 C8.93414062 28.071875 7.84875 28.04609375 6.73046875 28.01953125 C5.28511776 27.96321887 3.83980681 27.90587225 2.39453125 27.84765625 C1.32525391 27.82638672 1.32525391 27.82638672 0.234375 27.8046875 C-4.88978184 27.56963443 -7.88665274 26.41963666 -11.98046875 23.09765625 C-14.65859959 19.58838136 -15.80375143 16.51558934 -15.98046875 12.09765625 C-14.46636354 7.47565086 -12.77616314 4.18165795 -8.98046875 1.09765625 C-5.74295197 0.01848399 -3.40295104 -0.01659976 0 0 Z " fill="#D79F3D" transform="translate(422.98046875,370.90234375)"/>
<path d="M0 0 C1.16337891 0.00322266 2.32675781 0.00644531 3.52539062 0.00976562 C4.74033203 0.01814453 5.95527344 0.02652344 7.20703125 0.03515625 C8.43357422 0.03966797 9.66011719 0.04417969 10.92382812 0.04882812 C13.95577793 0.0606256 16.98763031 0.07708704 20.01953125 0.09765625 C20.04641276 1.74340191 20.06587248 3.38927038 20.08203125 5.03515625 C20.09363281 5.95167969 20.10523438 6.86820312 20.1171875 7.8125 C20.01953125 10.09765625 20.01953125 10.09765625 19.01953125 11.09765625 C17.38696367 11.25480279 15.74817787 11.34851039 14.109375 11.4140625 C12.6253418 11.4769043 12.6253418 11.4769043 11.11132812 11.54101562 C9.54995117 11.59999023 9.54995117 11.59999023 7.95703125 11.66015625 C6.38985352 11.72493164 6.38985352 11.72493164 4.79101562 11.79101562 C2.20066241 11.8974685 -0.38979061 11.99948385 -2.98046875 12.09765625 C-2.98046875 13.08765625 -2.98046875 14.07765625 -2.98046875 15.09765625 C-1.97886719 15.1234375 -0.97726562 15.14921875 0.0546875 15.17578125 C13.62886854 15.68711404 13.62886854 15.68711404 19.01953125 20.09765625 C22.23287173 23.72562131 22.54265278 27.19613166 22.37109375 31.8828125 C21.66027665 36.36096021 19.34693402 39.12451627 15.7746582 41.7434082 C12.48335906 43.36120496 10.27933867 43.44258242 6.625 43.390625 C5.42294922 43.38095703 4.22089844 43.37128906 2.98242188 43.36132812 C1.73654297 43.33619141 0.49066406 43.31105469 -0.79296875 43.28515625 C-2.69079102 43.26485352 -2.69079102 43.26485352 -4.62695312 43.24414062 C-7.74522518 43.20883943 -10.86262917 43.15952444 -13.98046875 43.09765625 C-14.00735026 41.45191059 -14.02680998 39.80604212 -14.04296875 38.16015625 C-14.05457031 37.24363281 -14.06617188 36.32710938 -14.078125 35.3828125 C-13.98046875 33.09765625 -13.98046875 33.09765625 -12.98046875 32.09765625 C-11.27483097 31.9402502 -9.56319631 31.84672233 -7.8515625 31.78125 C-6.81708984 31.73935547 -5.78261719 31.69746094 -4.71679688 31.65429688 C-3.62818359 31.61498047 -2.53957031 31.57566406 -1.41796875 31.53515625 C0.22075195 31.47038086 0.22075195 31.47038086 1.89257812 31.40429688 C4.60142689 31.29783557 7.31037117 31.19582109 10.01953125 31.09765625 C10.01953125 30.10765625 10.01953125 29.11765625 10.01953125 28.09765625 C8.93414062 28.071875 7.84875 28.04609375 6.73046875 28.01953125 C5.28511776 27.96321887 3.83980681 27.90587225 2.39453125 27.84765625 C1.32525391 27.82638672 1.32525391 27.82638672 0.234375 27.8046875 C-4.89074901 27.56959007 -7.88336831 26.41612221 -11.98046875 23.09765625 C-14.94440683 19.31608007 -15.81253371 15.88380503 -15.98046875 11.09765625 C-14.41677964 6.90038548 -12.4015163 3.98416512 -8.98046875 1.09765625 C-5.74295197 0.01848399 -3.40295104 -0.01659976 0 0 Z " fill="#D59D3D" transform="translate(311.98046875,370.90234375)"/>
<path d="M0 0 C5.28935818 3.87053893 8.02477481 8.05889486 9.8203125 14.33203125 C10.04736328 17.39990234 10.04736328 17.39990234 10.015625 20.60546875 C10.00917969 21.75917969 10.00273437 22.91289062 9.99609375 24.1015625 C9.97933594 25.29136719 9.96257812 26.48117187 9.9453125 27.70703125 C9.93628906 28.92003906 9.92726563 30.13304687 9.91796875 31.3828125 C9.89447838 34.36608898 9.86162932 37.34895719 9.8203125 40.33203125 C8.17456684 40.35891276 6.52869837 40.37837248 4.8828125 40.39453125 C3.50802734 40.41193359 3.50802734 40.41193359 2.10546875 40.4296875 C-0.1796875 40.33203125 -0.1796875 40.33203125 -1.1796875 39.33203125 C-1.32532687 37.59993623 -1.40694539 35.86236837 -1.4609375 34.125 C-1.49832031 33.06345703 -1.53570312 32.00191406 -1.57421875 30.90820312 C-1.60902344 29.78994141 -1.64382813 28.67167969 -1.6796875 27.51953125 C-1.74869355 25.32539436 -1.82145955 23.13137168 -1.8984375 20.9375 C-1.92873047 19.95934326 -1.95902344 18.98118652 -1.99023438 17.97338867 C-2.16057339 15.59852044 -2.38172681 13.57297085 -3.1796875 11.33203125 C-7.07323451 9.04170948 -10.74521821 8.77772259 -15.1796875 9.33203125 C-18.72233181 11.87349347 -19.95426412 13.60272031 -21.2421875 17.76953125 C-21.16509845 22.16360714 -19.96027086 23.99533122 -17.1796875 27.33203125 C-14.28606101 28.77884449 -11.3713866 28.76445501 -8.17578125 29.05078125 C-6.1796875 29.33203125 -6.1796875 29.33203125 -5.1796875 30.33203125 C-5.10763239 32.01812091 -5.09582682 33.70703784 -5.1171875 35.39453125 C-5.12621094 36.31363281 -5.13523437 37.23273438 -5.14453125 38.1796875 C-5.15613281 38.88996094 -5.16773438 39.60023438 -5.1796875 40.33203125 C-13.39401997 40.95748804 -19.61827535 40.66990138 -26.1796875 35.33203125 C-30.55103112 30.82140462 -33.18698324 25.49790108 -33.17578125 19.1015625 C-32.57125049 11.42273555 -29.92979618 6.52115371 -24.1796875 1.33203125 C-17.41831197 -4.40489345 -7.55671979 -4.32905202 0 0 Z " fill="#D0993B" transform="translate(480.1796875,373.66796875)"/>
<path d="M0 0 C15.18 0 30.36 0 46 0 C46 3.3 46 6.6 46 10 C40.39 10 34.78 10 29 10 C29 25.18 29 40.36 29 56 C25.37 56 21.74 56 18 56 C18 40.82 18 25.64 18 10 C12.06 10 6.12 10 0 10 C0 6.7 0 3.4 0 0 Z " fill="#DFA440" transform="translate(185,358)"/>
<path d="M0 0 C3.06253485 -0.32431175 5.94723887 -0.46387737 9 0 C11.41015625 2.40625 11.41015625 2.40625 13.0625 5.5 C13.63097656 6.5209375 14.19945312 7.541875 14.78515625 8.59375 C15.38650391 9.78484375 15.38650391 9.78484375 16 11 C19.13408531 8.0239358 21.2092473 5.15537802 23.265625 1.390625 C26.19489725 -0.95807077 29.34862791 -0.19374627 33 0 C33.02465881 3.96930989 33.04284023 7.93859034 33.05493164 11.90795898 C33.05997057 13.25920386 33.06680177 14.61044326 33.07543945 15.96166992 C33.08752419 17.90020434 33.09269828 19.838778 33.09765625 21.77734375 C33.10289307 22.94515381 33.10812988 24.11296387 33.11352539 25.31616211 C33 28 33 28 32 29 C29.69 29 27.38 29 25 29 C25 24.38 25 19.76 25 15 C24.34 15 23.68 15 23 15 C22.7525 15.70125 22.505 16.4025 22.25 17.125 C20.83911974 20.37002459 19.02104602 23.10316737 17 26 C14.08511023 23.3765992 12.11496102 20.28183606 10 17 C9.93941406 17.78246094 9.87882812 18.56492187 9.81640625 19.37109375 C9.73261719 20.38300781 9.64882813 21.39492188 9.5625 22.4375 C9.48128906 23.44683594 9.40007812 24.45617187 9.31640625 25.49609375 C9 28 9 28 8 29 C4.5 29.125 4.5 29.125 1 29 C0 28 0 28 -0.11352539 25.31616211 C-0.10828857 24.14835205 -0.10305176 22.98054199 -0.09765625 21.77734375 C-0.09443359 20.51728516 -0.09121094 19.25722656 -0.08789062 17.95898438 C-0.07953403 16.61848891 -0.07106907 15.27799412 -0.0625 13.9375 C-0.0574866 12.59310058 -0.05292342 11.2486994 -0.04882812 9.90429688 C-0.03699488 6.60282059 -0.02050971 3.30143197 0 0 Z " fill="#DEA43F" transform="translate(326,312)"/>
<path d="M0 0 C2.72977064 -0.08126109 5.4571017 -0.14061663 8.1875 -0.1875 C9.34088867 -0.22520508 9.34088867 -0.22520508 10.51757812 -0.26367188 C15.20990424 -0.32408809 18.17160818 -0.01262235 22 3 C26.07254082 7.52504535 27.32374115 10.79360733 27.2109375 16.94140625 C26.87656501 20.20463408 25.83882194 22.30306116 24 25 C18.51369406 29.22902749 14.71235525 30.13903974 7.875 30.125 C5.98394531 30.12886719 5.98394531 30.12886719 4.0546875 30.1328125 C1 30 1 30 0 29 C-0.08775605 26.85441173 -0.10695219 24.70595579 -0.09765625 22.55859375 C-0.09443359 21.25341797 -0.09121094 19.94824219 -0.08789062 18.60351562 C-0.07953401 17.2148431 -0.07106905 15.82617123 -0.0625 14.4375 C-0.05748666 13.04492344 -0.05292347 11.65234519 -0.04882812 10.25976562 C-0.03699434 6.8398013 -0.0205088 3.41992156 0 0 Z M9 7 C9 11.95 9 16.9 9 22 C14.5059025 22.52736286 14.5059025 22.52736286 16.8125 20.875 C18.51056927 18.193838 18.8733144 16.16714007 19 13 C18.17020292 10.08921756 18.17020292 10.08921756 16 8 C13.69 7.67 11.38 7.34 9 7 Z " fill="#DCA23F" transform="translate(397,311)"/>
<path d="M0 0 C0.98484375 0.00902344 1.9696875 0.01804687 2.984375 0.02734375 C4.10585938 0.04474609 4.10585938 0.04474609 5.25 0.0625 C5.27688151 1.70824566 5.29634123 3.35411413 5.3125 5 C5.32410156 5.91652344 5.33570313 6.83304687 5.34765625 7.77734375 C5.25 10.0625 5.25 10.0625 4.25 11.0625 C2.83479382 11.16776327 1.41759312 11.24678376 0 11.3125 C-3.77414329 11.67909672 -4.65314229 11.98380311 -7.75 14.5 C-10.5706867 18.11400483 -10.89968788 19.9825996 -11.06640625 24.5078125 C-11.10830078 25.58417969 -11.15019531 26.66054688 -11.19335938 27.76953125 C-11.25233398 29.46142578 -11.25233398 29.46142578 -11.3125 31.1875 C-11.35568359 32.32316406 -11.39886719 33.45882812 -11.44335938 34.62890625 C-11.54965945 37.43995261 -11.65035397 40.2512099 -11.75 43.0625 C-15.38 43.0625 -19.01 43.0625 -22.75 43.0625 C-22.85862532 39.08258891 -22.93762775 35.10568622 -23 31.125 C-23.05027344 29.44954102 -23.05027344 29.44954102 -23.1015625 27.74023438 C-23.20257633 19.12880526 -21.98256838 12.77995364 -16.25 6.1875 C-10.61454224 1.3973609 -7.47678784 -0.08900938 0 0 Z " fill="#CE983B" transform="translate(287.75,370.9375)"/>
<path d="M0 0 C7.26 0 14.52 0 22 0 C22 2.31 22 4.62 22 7 C15.565 7.495 15.565 7.495 9 8 C8.67 8.99 8.34 9.98 8 11 C12.29 11 16.58 11 21 11 C21.04241723 13.33294775 21.04092937 15.66702567 21 18 C20 19 20 19 17.27734375 19.09765625 C16.17519531 19.08605469 15.07304687 19.07445312 13.9375 19.0625 C12.28041016 19.04896484 12.28041016 19.04896484 10.58984375 19.03515625 C9.73519531 19.02355469 8.88054687 19.01195312 8 19 C8 19.99 8 20.98 8 22 C12.62 22 17.24 22 22 22 C22 24.64 22 27.28 22 30 C14.74 30 7.48 30 0 30 C0 20.1 0 10.2 0 0 Z " fill="#E3A741" transform="translate(300,311)"/>
<path d="M0 0 C2.05078125 0.03255208 4.1015625 0.06510417 6.15234375 0.09765625 C7.88966843 3.90177858 9.61669662 7.71035234 11.33422852 11.5234375 C11.92026673 12.82061773 12.5091267 14.11652691 13.10083008 15.41113281 C13.9496329 17.26953429 14.78826582 19.13223323 15.625 20.99609375 C16.13297119 22.11677246 16.64094238 23.23745117 17.16430664 24.39208984 C17.49035889 25.28492676 17.81641113 26.17776367 18.15234375 27.09765625 C17.82234375 27.75765625 17.49234375 28.41765625 17.15234375 29.09765625 C15.87359375 29.15953125 14.59484375 29.22140625 13.27734375 29.28515625 C12.19839844 29.33736328 12.19839844 29.33736328 11.09765625 29.390625 C10.45570313 29.29394531 9.81375 29.19726562 9.15234375 29.09765625 C8.49234375 28.10765625 7.83234375 27.11765625 7.15234375 26.09765625 C4.82356505 25.61941274 4.82356505 25.61941274 2.21484375 25.72265625 C1.33957031 25.71492188 0.46429688 25.7071875 -0.4375 25.69921875 C-3.30728878 26.17364088 -3.87963036 27.07112148 -5.84765625 29.09765625 C-8.57273423 29.48844181 -11.07887581 29.23382578 -13.84765625 29.09765625 C-13.28799231 24.94770253 -12.3484573 21.53343321 -10.59765625 17.734375 C-10.15421875 16.76564453 -9.71078125 15.79691406 -9.25390625 14.79882812 C-8.5578125 13.30706055 -8.5578125 13.30706055 -7.84765625 11.78515625 C-7.38359375 10.77130859 -6.91953125 9.75746094 -6.44140625 8.71289062 C-2.4869287 0.13144443 -2.4869287 0.13144443 0 0 Z M1.15234375 12.09765625 C0.82234375 13.74765625 0.49234375 15.39765625 0.15234375 17.09765625 C1.47234375 17.09765625 2.79234375 17.09765625 4.15234375 17.09765625 C3.49234375 15.44765625 2.83234375 13.79765625 2.15234375 12.09765625 C1.82234375 12.09765625 1.49234375 12.09765625 1.15234375 12.09765625 Z " fill="#DDA23F" transform="translate(436.84765625,311.90234375)"/>
<path d="M0 0 C0.75603516 -0.03738281 1.51207031 -0.07476562 2.29101562 -0.11328125 C6.33772732 -0.17645628 9.03473532 0.09801757 12.296875 2.6171875 C15.42508976 6.04656579 15.77316655 7.76458949 15.98828125 12.22265625 C15.73860541 15.27979823 14.78304881 17.05256747 12.8125 19.375 C9.65009418 21.48327055 8.30592531 21.71317465 4.625 22 C3.72394531 22.07476562 2.82289063 22.14953125 1.89453125 22.2265625 C1.20746094 22.27554687 0.52039063 22.32453125 -0.1875 22.375 C-0.166875 23.509375 -0.14625 24.64375 -0.125 25.8125 C-0.1875 29.375 -0.1875 29.375 -1.1875 30.375 C-4.6875 30.5 -4.6875 30.5 -8.1875 30.375 C-10.01784055 28.54465945 -9.31792797 25.64288008 -9.3203125 23.1875 C-9.32160156 21.93195313 -9.32289063 20.67640625 -9.32421875 19.3828125 C-9.32212402 18.72571289 -9.3200293 18.06861328 -9.31787109 17.39160156 C-9.31252234 15.38338665 -9.31781691 13.37539541 -9.32421875 11.3671875 C-9.32292969 10.11164063 -9.32164062 8.85609375 -9.3203125 7.5625 C-9.31862061 5.82033203 -9.31862061 5.82033203 -9.31689453 4.04296875 C-9.05083149 -1.44295 -4.42164981 0.08086143 0 0 Z M0.8125 7.375 C-0.54368499 8.50034105 -0.54368499 8.50034105 -0.25 11.4375 C-0.229375 12.406875 -0.20875 13.37625 -0.1875 14.375 C1.7925 14.375 3.7725 14.375 5.8125 14.375 C6.92086423 12.49183841 6.92086423 12.49183841 7.8125 10.375 C7.4825 9.715 7.1525 9.055 6.8125 8.375 C3.83269764 7.62835353 3.83269764 7.62835353 0.8125 7.375 Z " fill="#D79F3D" transform="translate(281.1875,310.625)"/>
<path d="M0 0 C2.97 0 5.94 0 9 0 C9.33 6.6 9.66 13.2 10 20 C12.31 20.33 14.62 20.66 17 21 C17.33 14.07 17.66 7.14 18 0 C20.64 0 23.28 0 26 0 C26.14601614 3.54122827 26.2343056 7.08167644 26.3125 10.625 C26.35439453 11.62402344 26.39628906 12.62304688 26.43945312 13.65234375 C26.57759825 21.99630922 26.57759825 21.99630922 23.60546875 25.6484375 C19.38139599 29.46086899 16.32446193 29.39861892 10.76953125 29.34765625 C6.37933255 28.79655937 4.87877528 27.32166378 2 24 C-0.63159772 19.25773516 -0.22707269 14.45209506 -0.125 9.1875 C-0.11597656 8.30384766 -0.10695313 7.42019531 -0.09765625 6.50976562 C-0.07419637 4.33972641 -0.03832865 2.16982753 0 0 Z " fill="#DFA440" transform="translate(365,312)"/>
<path d="M0 0 C1.97487426 1.4811557 2.83477251 2.64594109 3.875 4.875 C4.05565151 7.94607567 2.73080642 9.53692932 1 12 C0 13 0 13 -3.375 13.25 C-7 13 -7 13 -8.9375 11.9375 C-10.6140629 8.88023824 -10.36528977 6.4093712 -10 3 C-7.11067924 -0.93998286 -4.57005162 -1.33757608 0 0 Z " fill="#C69238" transform="translate(397,403)"/>
<path d="M0 0 C0.66 0.33 1.32 0.66 2 1 C1.67 14.2 1.34 27.4 1 41 C-4 40 -4 40 -7 38 C-6.67 36.68 -6.34 35.36 -6 34 C-5.071875 35.2065625 -5.071875 35.2065625 -4.125 36.4375 C-2.25835959 39.03874519 -2.25835959 39.03874519 0 40 C0 26.8 0 13.6 0 0 Z " fill="#545454" transform="translate(622,244)"/>
<path d="M0 0 C0.33 0.66 0.66 1.32 1 2 C0.67 2.99 0.34 3.98 0 5 C-0.0806622 6.48123547 -0.10761193 7.96582204 -0.09765625 9.44921875 C-0.09443359 10.29677734 -0.09121094 11.14433594 -0.08789062 12.01757812 C-0.07951172 12.89865234 -0.07113281 13.77972656 -0.0625 14.6875 C-0.05798828 15.58017578 -0.05347656 16.47285156 -0.04882812 17.39257812 C-0.03704983 19.59511987 -0.02060164 21.79752599 0 24 C-3.16732965 20.83267035 -3.99262144 17.12502477 -4.0078125 12.75 C-3.59923478 7.9124398 -2.4995199 4.23831635 0 0 Z " fill="#815F24" transform="translate(223,380)"/>
<path d="M0 0 C0.33 0.66 0.66 1.32 1 2 C0.67 2.99 0.34 3.98 0 5 C-0.14403348 6.33363703 -0.24590423 7.67218046 -0.31640625 9.01171875 C-0.35830078 9.76904297 -0.40019531 10.52636719 -0.44335938 11.30664062 C-0.48267578 12.09232422 -0.52199219 12.87800781 -0.5625 13.6875 C-0.60568359 14.48478516 -0.64886719 15.28207031 -0.69335938 16.10351562 C-0.79927368 18.06881447 -0.90012551 20.03438496 -1 22 C-3.64127377 18.03808935 -4.08148035 14.72586021 -4 10 C-2.26035503 2.26035503 -2.26035503 2.26035503 0 0 Z " fill="#7F5E24" transform="translate(451,380)"/>
<path d="M0 0 C17.07744875 0.41002278 17.07744875 0.41002278 23 5 C23 5.99 23 6.98 23 8 C21.9171875 7.319375 21.9171875 7.319375 20.8125 6.625 C15.87910619 3.77459469 11.89228312 2.72074443 6.1875 2.375 C5.02605469 2.30023438 3.86460937 2.22546875 2.66796875 2.1484375 C1.78753906 2.09945313 0.90710938 2.05046875 0 2 C0 1.34 0 0.68 0 0 Z " fill="#6D501F" transform="translate(419,386)"/>
<path d="M0 0 C0.99 0 1.98 0 3 0 C3.99 1.98 4.98 3.96 6 6 C12.27 6 18.54 6 25 6 C25 6.66 25 7.32 25 8 C21.7715237 8.17499733 18.54427074 8.28106618 15.3125 8.375 C13.94448242 8.45041016 13.94448242 8.45041016 12.54882812 8.52734375 C5.91564777 8.67206768 5.91564777 8.67206768 3.23974609 6.70800781 C1.40081755 4.57394258 0 2.89554034 0 0 Z " fill="#525252" transform="translate(618,314)"/>
<path d="M0 0 C17.07744875 0.41002278 17.07744875 0.41002278 23 5 C22.67 5.66 22.34 6.32 22 7 C21.50113281 6.72285156 21.00226563 6.44570313 20.48828125 6.16015625 C13.76238573 2.76702045 7.46459578 2.23074485 0 2 C0 1.34 0 0.68 0 0 Z " fill="#6E511F" transform="translate(308,386)"/>
<path d="M0 0 C1.47193312 2.94386623 0.84936173 5.37390036 0.5625 8.625 C0.40974609 10.40777344 0.40974609 10.40777344 0.25390625 12.2265625 C0.12822266 13.59941406 0.12822266 13.59941406 0 15 C0.66 15.33 1.32 15.66 2 16 C1.01 16 0.02 16 -1 16 C-3.66077956 7.55824616 -3.66077956 7.55824616 -1.625 2.9375 C-1.08875 1.968125 -0.5525 0.99875 0 0 Z " fill="#826025" transform="translate(410,376)"/>
<path d="M0 0 C0.66 0 1.32 0 2 0 C1.67 1.98 1.34 3.96 1 6 C1.99 5.67 2.98 5.34 4 5 C3.67 6.32 3.34 7.64 3 9 C2.01 9 1.02 9 0 9 C0 6.03 0 3.06 0 0 Z " fill="#9C722C" transform="translate(229,388)"/>
<path d="M0 0 C0.99 0 1.98 0 3 0 C4.33333333 2.66666667 5.66666667 5.33333333 7 8 C3.64379729 6.61122646 1.92701272 5.08322035 0 2 C0 1.34 0 0.68 0 0 Z " fill="#3C3D3D" transform="translate(618,314)"/>
</svg>
